<svg width="44" height="45" viewBox="0 0 44 45" fill="none" xmlns="http://www.w3.org/2000/svg">
<g clip-path="url(#clip0_207_18)">
<path d="M9.65433 18.3094C10.5121 15.6552 12.1676 13.3459 14.3845 11.7109C16.6015 10.0758 19.2667 9.19863 22 9.20438C25.0983 9.20438 27.8997 10.3294 30.0997 12.1706L36.5017 5.625C32.6003 2.14687 27.6008 0 22 0C13.3283 0 5.863 5.05875 2.27333 12.4688L9.65433 18.3094Z" fill="#EA4335"/>
<path d="M29.4067 33.7744C27.4083 35.0925 24.871 35.7956 22 35.7956C19.2776 35.8013 16.6225 34.9311 14.4104 33.3082C12.1984 31.6852 10.5416 29.3918 9.6745 26.7525L2.26784 32.5031C4.08512 36.2649 6.8975 39.4301 10.3855 41.6392C13.8735 43.8482 17.8974 45.0126 22 45C27.3772 45 32.5142 43.0444 36.3623 39.375L29.4085 33.7744H29.4067Z" fill="#34A853"/>
<path d="M36.3623 39.375C40.3865 35.535 42.999 29.82 42.999 22.5C42.999 21.1688 42.7992 19.7381 42.5003 18.4088H22V27.1031H33.7993C33.2182 30.0263 31.6543 32.2894 29.4085 33.7744L36.3623 39.375Z" fill="#4A90E2"/>
<path d="M9.67459 26.7525C9.22608 25.3817 8.99822 23.9455 8.99992 22.5C8.99992 21.0337 9.22909 19.6256 9.65442 18.3094L2.27342 12.4688C0.763451 15.5863 -0.0149353 19.021 9.14297e-05 22.5C9.14297e-05 26.1 0.815925 29.4937 2.26792 32.5031L9.67459 26.7525Z" fill="#FBBC05"/>
</g>
<defs>
<clipPath id="clip0_207_18">
<rect width="44" height="45" fill="white"/>
</clipPath>
</defs>
</svg>
