<svg width="44" height="45" viewBox="0 0 44 45" fill="none" xmlns="http://www.w3.org/2000/svg">
<g clip-path="url(#clip0_207_13)">
<path d="M41.5716 45.0002C42.9125 45.0002 44 43.8882 44 42.5166V2.48361C44 1.11182 42.9125 0 41.5716 0H2.42842C1.08694 0 0 1.11182 0 2.48361V42.5166C0 43.8882 1.08694 45.0002 2.42842 45.0002H41.5716Z" fill="#395185"/>
<path d="M30.3593 45.0008V27.5744H36.0788L36.9351 20.7831H30.3593V16.4469C30.3593 14.4806 30.8933 13.1406 33.6504 13.1406L37.1668 13.139V7.06493C36.5583 6.98213 34.4711 6.79721 32.0428 6.79721C26.9729 6.79721 23.502 9.96215 23.502 15.7745V20.7831H17.7679V27.5744H23.502V45.0008H30.3593Z" fill="white"/>
</g>
<defs>
<clipPath id="clip0_207_13">
<rect width="44" height="45" fill="white"/>
</clipPath>
</defs>
</svg>
